<svg width="114" height="48" viewBox="0 0 114 48" fill="none" xmlns="http://www.w3.org/2000/svg">
<rect width="114" height="48" rx="8" fill="#202429"/>
<path d="M30.7454 23.9695C30.7246 20.9263 33.2843 19.4353 33.4092 19.374C31.9524 17.2908 29.7048 17.0048 28.8932 16.9844C26.9994 16.7802 25.168 18.1077 24.1899 18.1077C23.2118 18.1077 21.7134 17.0048 20.1109 17.0457C18.0506 17.0865 16.1152 18.2507 15.0539 20.0685C12.8687 23.7857 14.492 29.2389 16.5939 32.2209C17.6344 33.6914 18.8623 35.3253 20.4647 35.2641C22.0256 35.2028 22.6083 34.2837 24.5021 34.2837C26.3751 34.2837 26.9161 35.2641 28.5602 35.2232C30.2459 35.2028 31.3073 33.7527 32.3062 32.2617C33.5132 30.5869 33.9919 28.9121 34.0127 28.8304C34.0127 28.8304 30.787 27.6254 30.7454 23.9695ZM27.6653 15.0032C28.4978 13.9616 29.0805 12.5728 28.914 11.1431C27.6862 11.2043 26.1669 11.9805 25.2929 12.9812C24.5229 13.8799 23.8153 15.33 24.0026 16.6985C25.3761 16.8006 26.7913 16.0245 27.6653 15.0032Z" fill="white"/>
<path d="M47.903 31.4156H44.4723L43.7546 33.4777H42.1548L45.5003 24.6212H46.8811L50.2327 33.4777H48.6269L47.903 31.4156ZM44.9042 30.1747H47.4711L46.1877 26.5007L44.9042 30.1747Z" fill="white"/>
<path d="M56.571 30.2538C56.571 31.2717 56.3398 32.0847 55.8775 32.693C55.4152 33.2972 54.7948 33.5993 54.0162 33.5993C53.2944 33.5993 52.7165 33.3621 52.2826 32.8877V36.0081H50.8045V26.8961H52.167L52.2279 27.5652C52.6618 27.0381 53.2518 26.7745 53.998 26.7745C54.8009 26.7745 55.4294 27.0746 55.8836 27.6747C56.3418 28.2708 56.571 29.1001 56.571 30.1626V30.2538ZM55.0989 30.1261C55.0989 29.4691 54.9671 28.948 54.7036 28.5628C54.444 28.1776 54.0709 27.9849 53.5843 27.9849C52.9801 27.9849 52.5462 28.2343 52.2826 28.7331V31.6529C52.5503 32.1638 52.9882 32.4193 53.5965 32.4193C54.0669 32.4193 54.4339 32.2307 54.6975 31.8536C54.9651 31.4724 55.0989 30.8966 55.0989 30.1261Z" fill="white"/>
<path d="M63.5905 30.2538C63.5905 31.2717 63.3593 32.0847 62.8971 32.693C62.4348 33.2972 61.8143 33.5993 61.0357 33.5993C60.3139 33.5993 59.736 33.3621 59.3021 32.8877V36.0081H57.824V26.8961H59.1866L59.2474 27.5652C59.6813 27.0381 60.2713 26.7745 61.0175 26.7745C61.8204 26.7745 62.449 27.0746 62.9031 27.6747C63.3614 28.2708 63.5905 29.1001 63.5905 30.1626V30.2538ZM62.1185 30.1261C62.1185 29.4691 61.9867 28.948 61.7231 28.5628C61.4635 28.1776 61.0905 27.9849 60.6038 27.9849C59.9996 27.9849 59.5657 28.2343 59.3021 28.7331V31.6529C59.5698 32.1638 60.0077 32.4193 60.616 32.4193C61.0864 32.4193 61.4534 32.2307 61.717 31.8536C61.9846 31.4724 62.1185 30.8966 62.1185 30.1261Z" fill="white"/>
<path d="M72.7207 31.1967C72.7207 30.8074 72.5829 30.5073 72.3071 30.2964C72.0354 30.0855 71.5427 29.8726 70.829 29.6577C70.1153 29.4428 69.5476 29.2035 69.1258 28.9399C68.3188 28.433 67.9153 27.772 67.9153 26.957C67.9153 26.2432 68.2053 25.6552 68.7852 25.1929C69.3691 24.7307 70.1254 24.4995 71.0541 24.4995C71.6704 24.4995 72.2199 24.6131 72.7025 24.8401C73.1851 25.0672 73.5642 25.3917 73.84 25.8134C74.1157 26.2311 74.2536 26.6954 74.2536 27.2063H72.7207C72.7207 26.7441 72.5748 26.3831 72.2828 26.1236C71.9949 25.86 71.5812 25.7282 71.0419 25.7282C70.5391 25.7282 70.1477 25.8357 69.8679 26.0506C69.5922 26.2655 69.4543 26.5656 69.4543 26.9509C69.4543 27.2753 69.6043 27.547 69.9044 27.766C70.2045 27.9809 70.6992 28.1918 71.3886 28.3986C72.078 28.6013 72.6315 28.8345 73.0492 29.0981C73.4669 29.3576 73.7731 29.6577 73.9677 29.9983C74.1624 30.3349 74.2597 30.7303 74.2597 31.1845C74.2597 31.9225 73.9758 32.5105 73.4081 32.9485C72.8444 33.3824 72.078 33.5993 71.1088 33.5993C70.4681 33.5993 69.8781 33.4817 69.3387 33.2465C68.8034 33.0073 68.3857 32.6788 68.0857 32.2611C67.7896 31.8435 67.6416 31.3568 67.6416 30.8013H69.1806C69.1806 31.3041 69.3468 31.6934 69.6794 31.9692C70.0119 32.2449 70.4884 32.3828 71.1088 32.3828C71.6441 32.3828 72.0456 32.2753 72.3132 32.0604C72.5849 31.8414 72.7207 31.5535 72.7207 31.1967Z" fill="white"/>
<path d="M77.3193 25.2964V26.8961H78.4811V27.991H77.3193V31.665C77.3193 31.9164 77.368 32.0989 77.4653 32.2125C77.5667 32.322 77.7451 32.3767 78.0006 32.3767C78.1709 32.3767 78.3433 32.3564 78.5176 32.3159V33.4594C78.181 33.5527 77.8566 33.5993 77.5444 33.5993C76.4089 33.5993 75.8412 32.9728 75.8412 31.7198V27.991H74.7585V26.8961H75.8412V25.2964H77.3193Z" fill="white"/>
<path d="M79.1563 30.1261C79.1563 29.4813 79.2841 28.9014 79.5395 28.3864C79.795 27.8673 80.1539 27.4699 80.6162 27.1942C81.0785 26.9144 81.6097 26.7745 82.2099 26.7745C83.098 26.7745 83.8178 27.0604 84.3693 27.6321C84.9248 28.2039 85.2249 28.9622 85.2695 29.9071L85.2756 30.2538C85.2756 30.9026 85.1499 31.4825 84.8985 31.9935C84.6511 32.5044 84.2942 32.8998 83.8279 33.1796C83.3656 33.4594 82.8303 33.5993 82.222 33.5993C81.2934 33.5993 80.5493 33.2912 79.9897 32.6748C79.4341 32.0543 79.1563 31.2291 79.1563 30.1991V30.1261ZM80.6344 30.2538C80.6344 30.931 80.7743 31.4623 81.0541 31.8475C81.334 32.2287 81.7233 32.4193 82.222 32.4193C82.7208 32.4193 83.1081 32.2246 83.3839 31.8353C83.6637 31.446 83.8036 30.8763 83.8036 30.1261C83.8036 29.461 83.6596 28.9339 83.3717 28.5446C83.0878 28.1553 82.7006 27.9606 82.2099 27.9606C81.7273 27.9606 81.3441 28.1532 81.0602 28.5385C80.7764 28.9197 80.6344 29.4914 80.6344 30.2538Z" fill="white"/>
<path d="M89.9715 28.2465C89.7769 28.2141 89.5761 28.1978 89.3693 28.1978C88.6921 28.1978 88.2359 28.4574 88.0007 28.9764V33.4777H86.5226V26.8961H87.9338L87.9703 27.6321C88.3271 27.0604 88.8219 26.7745 89.4545 26.7745C89.6653 26.7745 89.8397 26.8029 89.9776 26.8596L89.9715 28.2465Z" fill="white"/>
<path d="M93.682 33.5993C92.7452 33.5993 91.9849 33.3053 91.401 32.7173C90.8211 32.1253 90.5311 31.3386 90.5311 30.3572V30.1747C90.5311 29.5178 90.6568 28.9318 90.9082 28.4168C91.1637 27.8978 91.5206 27.4943 91.9788 27.2063C92.4371 26.9184 92.948 26.7745 93.5117 26.7745C94.4079 26.7745 95.0993 27.0604 95.5859 27.6321C96.0766 28.2039 96.3219 29.0129 96.3219 30.0592V30.6553H92.0214C92.066 31.1987 92.2465 31.6285 92.5628 31.9448C92.8831 32.2611 93.2846 32.4193 93.7672 32.4193C94.4444 32.4193 94.9959 32.1456 95.4217 31.5981L96.2185 32.3585C95.9549 32.7518 95.6021 33.058 95.1601 33.277C94.7222 33.4919 94.2294 33.5993 93.682 33.5993ZM93.5056 27.9606C93.1001 27.9606 92.7716 28.1025 92.5202 28.3864C92.2728 28.6703 92.1147 29.0656 92.0457 29.5725H94.8621V29.4631C94.8296 28.9683 94.6978 28.5952 94.4667 28.3438C94.2355 28.0884 93.9152 27.9606 93.5056 27.9606Z" fill="white"/>
<path d="M43.1058 14.1355H45.0408C45.8569 14.1355 46.4931 14.375 46.9493 14.854C47.4081 15.333 47.6374 16.0047 47.6374 16.8689C47.6374 17.7357 47.4093 18.4112 46.9531 18.8953C46.4969 19.3794 45.8595 19.6214 45.0408 19.6214H43.1058V14.1355ZM43.9573 14.8692V18.8839H44.961C45.5439 18.8839 45.99 18.7115 46.2992 18.3668C46.611 18.0221 46.7668 17.5254 46.7668 16.8765C46.7668 16.2303 46.611 15.7348 46.2992 15.3901C45.9875 15.0428 45.5414 14.8692 44.961 14.8692H43.9573Z" fill="white"/>
<path d="M51.4506 19.1424C51.1059 19.5124 50.6459 19.6974 50.0705 19.6974C49.4952 19.6974 49.0352 19.5124 48.6905 19.1424C48.3458 18.7698 48.1735 18.2629 48.1735 17.6217C48.1735 16.983 48.3458 16.4786 48.6905 16.1086C49.0352 15.736 49.4952 15.5497 50.0705 15.5497C50.6459 15.5497 51.1059 15.736 51.4506 16.1086C51.7953 16.4786 51.9676 16.983 51.9676 17.6217C51.9676 18.2629 51.7953 18.7698 51.4506 19.1424ZM50.0705 19.0207C50.3975 19.0207 50.656 18.8978 50.8461 18.652C51.0362 18.4061 51.1312 18.0627 51.1312 17.6217C51.1312 17.1832 51.0349 16.8411 50.8423 16.5952C50.6522 16.3494 50.395 16.2265 50.0705 16.2265C49.7461 16.2265 49.4876 16.3494 49.295 16.5952C49.1049 16.8411 49.0099 17.1832 49.0099 17.6217C49.0099 18.0627 49.1049 18.4061 49.295 18.652C49.4876 18.8978 49.7461 19.0207 50.0705 19.0207Z" fill="white"/>
<path d="M57.8641 15.622L56.7692 19.6214H55.9138L55.0736 16.6256H55.0546L54.222 19.6214H53.3742L52.2755 15.622H53.0967L53.8267 18.7698H53.8419L54.6744 15.622H55.4652L56.3016 18.7698H56.3206L57.0505 15.622H57.8641Z" fill="white"/>
<path d="M58.3659 19.6214V15.622H59.1491V16.2911H59.1681C59.2796 16.0579 59.4418 15.8767 59.6547 15.7474C59.8676 15.6182 60.1249 15.5535 60.4265 15.5535C60.8649 15.5535 61.2058 15.6853 61.4491 15.9489C61.6924 16.21 61.8141 16.5711 61.8141 17.0324V19.6214H60.9891V17.1921C60.9891 16.888 60.9169 16.6573 60.7724 16.5002C60.6305 16.3405 60.4189 16.2607 60.1375 16.2607C59.8486 16.2607 59.618 16.3544 59.4456 16.542C59.2733 16.7295 59.1871 16.9792 59.1871 17.2909V19.6214H58.3659Z" fill="white"/>
<path d="M62.6391 19.6214V14.1355H63.4603V19.6214H62.6391Z" fill="white"/>
<path d="M67.4027 19.1424C67.058 19.5124 66.598 19.6974 66.0226 19.6974C65.4473 19.6974 64.9873 19.5124 64.6426 19.1424C64.2979 18.7698 64.1256 18.2629 64.1256 17.6217C64.1256 16.983 64.2979 16.4786 64.6426 16.1086C64.9873 15.736 65.4473 15.5497 66.0226 15.5497C66.598 15.5497 67.058 15.736 67.4027 16.1086C67.7473 16.4786 67.9197 16.983 67.9197 17.6217C67.9197 18.2629 67.7473 18.7698 67.4027 19.1424ZM66.0226 19.0207C66.3496 19.0207 66.6081 18.8978 66.7982 18.652C66.9883 18.4061 67.0833 18.0627 67.0833 17.6217C67.0833 17.1832 66.987 16.8411 66.7944 16.5952C66.6043 16.3494 66.347 16.2265 66.0226 16.2265C65.6982 16.2265 65.4397 16.3494 65.2471 16.5952C65.057 16.8411 64.9619 17.1832 64.9619 17.6217C64.9619 18.0627 65.057 18.4061 65.2471 18.652C65.4397 18.8978 65.6982 19.0207 66.0226 19.0207Z" fill="white"/>
<path d="M69.9536 19.0397C70.2425 19.0397 70.4846 18.9523 70.6797 18.7774C70.8774 18.6 70.9763 18.382 70.9763 18.1235V17.808L69.9916 17.8688C69.7458 17.8865 69.5557 17.9474 69.4214 18.0513C69.2896 18.1527 69.2237 18.2895 69.2237 18.4619C69.2237 18.6368 69.2896 18.7774 69.4214 18.8839C69.5557 18.9878 69.7331 19.0397 69.9536 19.0397ZM69.7255 19.6898C69.3327 19.6898 69.0121 19.5783 68.7637 19.3553C68.5178 19.1322 68.3949 18.842 68.3949 18.4847C68.3949 18.1349 68.5242 17.8574 68.7827 17.6521C69.0412 17.4443 69.4074 17.3277 69.8814 17.3023L70.9763 17.2377V16.9298C70.9763 16.7067 70.9053 16.5331 70.7634 16.4089C70.6215 16.2822 70.425 16.2188 70.1741 16.2188C69.9409 16.2188 69.7509 16.2708 69.6039 16.3747C69.4594 16.4786 69.3681 16.6218 69.3301 16.8043H68.5546C68.5774 16.4343 68.7371 16.1327 69.0336 15.8995C69.3301 15.6663 69.7204 15.5497 70.2045 15.5497C70.6886 15.5497 71.0739 15.6689 71.3603 15.9071C71.6492 16.1453 71.7937 16.4647 71.7937 16.8651V19.6214H71.0067V18.9637H70.9877C70.8736 19.1842 70.7 19.3604 70.4669 19.4921C70.2362 19.6239 69.9891 19.6898 69.7255 19.6898Z" fill="white"/>
<path d="M74.0937 19.6898C73.5868 19.6898 73.18 19.5023 72.8734 19.1272C72.5667 18.7521 72.4133 18.2502 72.4133 17.6217C72.4133 16.9931 72.5654 16.4926 72.8695 16.12C73.1762 15.7449 73.5817 15.5573 74.0861 15.5573C74.3674 15.5573 74.6183 15.6232 74.8388 15.755C75.0593 15.8843 75.2266 16.0617 75.3407 16.2873H75.3559V14.1355H76.1809V19.6214H75.3825V18.9409H75.3673C75.2482 19.1741 75.0771 19.3578 74.8541 19.4921C74.6336 19.6239 74.3801 19.6898 74.0937 19.6898ZM74.3104 16.2493C73.986 16.2493 73.7287 16.3735 73.5387 16.6218C73.3486 16.8677 73.2535 17.201 73.2535 17.6217C73.2535 18.0449 73.3486 18.3795 73.5387 18.6253C73.7287 18.8712 73.986 18.9941 74.3104 18.9941C74.6272 18.9941 74.8819 18.8699 75.0746 18.6215C75.2672 18.3706 75.3635 18.0373 75.3635 17.6217C75.3635 17.2086 75.2672 16.8765 75.0746 16.6256C74.8819 16.3747 74.6272 16.2493 74.3104 16.2493Z" fill="white"/>
<path d="M81.7048 19.1424C81.3601 19.5124 80.9001 19.6974 80.3248 19.6974C79.7494 19.6974 79.2894 19.5124 78.9447 19.1424C78.6 18.7698 78.4277 18.2629 78.4277 17.6217C78.4277 16.983 78.6 16.4786 78.9447 16.1086C79.2894 15.736 79.7494 15.5497 80.3248 15.5497C80.9001 15.5497 81.3601 15.736 81.7048 16.1086C82.0495 16.4786 82.2218 16.983 82.2218 17.6217C82.2218 18.2629 82.0495 18.7698 81.7048 19.1424ZM80.3248 19.0207C80.6517 19.0207 80.9102 18.8978 81.1003 18.652C81.2904 18.4061 81.3854 18.0627 81.3854 17.6217C81.3854 17.1832 81.2891 16.8411 81.0965 16.5952C80.9064 16.3494 80.6492 16.2265 80.3248 16.2265C80.0003 16.2265 79.7418 16.3494 79.5492 16.5952C79.3591 16.8411 79.2641 17.1832 79.2641 17.6217C79.2641 18.0627 79.3591 18.4061 79.5492 18.652C79.7418 18.8978 80.0003 19.0207 80.3248 19.0207Z" fill="white"/>
<path d="M82.8567 19.6214V15.622H83.6399V16.2911H83.6589C83.7704 16.0579 83.9326 15.8767 84.1455 15.7474C84.3584 15.6182 84.6156 15.5535 84.9173 15.5535C85.3557 15.5535 85.6966 15.6853 85.9399 15.9489C86.1832 16.21 86.3049 16.5711 86.3049 17.0324V19.6214H85.4799V17.1921C85.4799 16.888 85.4077 16.6573 85.2632 16.5002C85.1213 16.3405 84.9096 16.2607 84.6283 16.2607C84.3394 16.2607 84.1087 16.3544 83.9364 16.542C83.7641 16.7295 83.6779 16.9792 83.6779 17.2909V19.6214H82.8567Z" fill="white"/>
<path d="M88.9205 14.6753H89.7455V15.622H90.5058V16.2721H89.7455V18.4771C89.7455 18.6494 89.7847 18.7762 89.8633 18.8573C89.9419 18.9384 90.0648 18.9789 90.2321 18.9789C90.3537 18.9789 90.4437 18.9726 90.502 18.9599V19.61C90.4006 19.6353 90.2486 19.648 90.0458 19.648C89.6428 19.648 89.3539 19.5656 89.179 19.4009C89.0066 19.2336 88.9205 18.9561 88.9205 18.5683V16.2721H88.3388V15.622H88.9205V14.6753Z" fill="white"/>
<path d="M91.2129 19.6214V14.1355H92.0265V16.2911H92.0455C92.157 16.0554 92.3205 15.8742 92.5359 15.7474C92.7514 15.6182 93.0099 15.5535 93.3115 15.5535C93.7474 15.5535 94.0896 15.6879 94.338 15.9565C94.5889 16.2252 94.7143 16.5876 94.7143 17.0438V19.6214H93.8893V17.2035C93.8893 16.9044 93.8146 16.6725 93.665 16.5078C93.518 16.343 93.3013 16.2607 93.0149 16.2607C92.7133 16.2607 92.4738 16.357 92.2964 16.5496C92.1215 16.7397 92.0341 16.9931 92.0341 17.3099V19.6214H91.2129Z" fill="white"/>
<path d="M97.8774 16.5002C97.6974 16.3076 97.4655 16.2112 97.1816 16.2112C96.8978 16.2112 96.6621 16.3088 96.4745 16.504C96.287 16.6966 96.1831 16.9462 96.1628 17.2529H98.1625C98.1524 16.9437 98.0573 16.6928 97.8774 16.5002ZM98.1587 18.4467H98.938C98.8798 18.8142 98.6922 19.1145 98.3754 19.3477C98.0586 19.5809 97.6721 19.6974 97.2159 19.6974C96.6304 19.6974 96.1691 19.5137 95.832 19.1462C95.4975 18.7762 95.3302 18.2743 95.3302 17.6407C95.3302 17.0121 95.4975 16.5065 95.832 16.1238C96.1691 15.7411 96.619 15.5497 97.1816 15.5497C97.7342 15.5497 98.1726 15.731 98.497 16.0934C98.8215 16.4533 98.9837 16.9374 98.9837 17.5457V17.827H96.159V17.8764C96.159 18.2262 96.2566 18.5062 96.4517 18.7166C96.6469 18.927 96.9079 19.0321 97.2349 19.0321C97.4655 19.0321 97.6632 18.9789 97.8279 18.8725C97.9927 18.766 98.1029 18.6241 98.1587 18.4467Z" fill="white"/>
<path fill-rule="evenodd" clip-rule="evenodd" d="M107.143 0.6H6.85714C3.40142 0.6 0.6 3.40142 0.6 6.85714V41.1429C0.6 44.5986 3.40142 47.4 6.85714 47.4H107.143C110.599 47.4 113.4 44.5986 113.4 41.1429V6.85714C113.4 3.40142 110.599 0.6 107.143 0.6ZM6.85714 0C3.07005 0 0 3.07005 0 6.85714V41.1429C0 44.93 3.07005 48 6.85714 48H107.143C110.93 48 114 44.93 114 41.1429V6.85714C114 3.07005 110.93 0 107.143 0H6.85714Z" fill="white"/>
</svg>
