<svg width="126" height="48" viewBox="0 0 126 48" fill="none" xmlns="http://www.w3.org/2000/svg">
<rect width="126" height="48" rx="8" fill="#202429"/>
<path d="M48.9543 31.7584C48.6339 32.1761 48.1899 32.4924 47.6221 32.7074C47.0544 32.9223 46.4096 33.0297 45.6878 33.0297C44.9457 33.0297 44.2888 32.8615 43.717 32.5249C43.1452 32.1883 42.7032 31.7078 42.3909 31.0833C42.0827 30.4547 41.9226 29.7227 41.9104 28.8874V28.1939C41.9104 26.8557 42.2308 25.8115 42.8715 25.0613C43.5122 24.307 44.4064 23.9299 45.554 23.9299C46.5394 23.9299 47.322 24.1732 47.9019 24.6598C48.4818 25.1465 48.8306 25.848 48.9482 26.7645H47.4396C47.2693 25.698 46.6509 25.1647 45.5844 25.1647C44.895 25.1647 44.3699 25.4141 44.009 25.9129C43.6521 26.4076 43.4676 27.1355 43.4554 28.0966V28.7779C43.4554 29.7349 43.6562 30.479 44.0576 31.0103C44.4631 31.5374 45.0248 31.801 45.7426 31.801C46.5293 31.801 47.0889 31.6226 47.4214 31.2657V29.5321H45.5966V28.3643H48.9543V31.7584Z" fill="white"/>
<path d="M50.2256 29.5565C50.2256 28.9117 50.3533 28.3318 50.6088 27.8168C50.8642 27.2977 51.2231 26.9003 51.6854 26.6246C52.1477 26.3448 52.6789 26.2049 53.2791 26.2049C54.1672 26.2049 54.887 26.4908 55.4385 27.0625C55.9941 27.6343 56.2941 28.3926 56.3387 29.3375L56.3448 29.6842C56.3448 30.333 56.2191 30.9129 55.9677 31.4239C55.7203 31.9348 55.3635 32.3302 54.8971 32.61C54.4348 32.8898 53.8996 33.0297 53.2913 33.0297C52.3626 33.0297 51.6185 32.7215 51.0589 32.1052C50.5033 31.4847 50.2256 30.6595 50.2256 29.6295V29.5565ZM51.7037 29.6842C51.7037 30.3614 51.8436 30.8927 52.1234 31.2779C52.4032 31.6591 52.7925 31.8497 53.2913 31.8497C53.7901 31.8497 54.1773 31.655 54.4531 31.2657C54.7329 30.8764 54.8728 30.3067 54.8728 29.5565C54.8728 28.8914 54.7288 28.3643 54.4409 27.975C54.1571 27.5857 53.7698 27.391 53.2791 27.391C52.7965 27.391 52.4133 27.5836 52.1295 27.9689C51.8456 28.3501 51.7037 28.9218 51.7037 29.6842Z" fill="white"/>
<path d="M57.3181 29.5565C57.3181 28.9117 57.4458 28.3318 57.7013 27.8168C57.9568 27.2977 58.3157 26.9003 58.7779 26.6246C59.2402 26.3448 59.7715 26.2049 60.3716 26.2049C61.2597 26.2049 61.9795 26.4908 62.531 27.0625C63.0866 27.6343 63.3867 28.3926 63.4313 29.3375L63.4374 29.6842C63.4374 30.333 63.3116 30.9129 63.0602 31.4239C62.8129 31.9348 62.456 32.3302 61.9896 32.61C61.5274 32.8898 60.9921 33.0297 60.3838 33.0297C59.4552 33.0297 58.711 32.7215 58.1514 32.1052C57.5959 31.4847 57.3181 30.6595 57.3181 29.6295V29.5565ZM58.7962 29.6842C58.7962 30.3614 58.9361 30.8927 59.2159 31.2779C59.4957 31.6591 59.885 31.8497 60.3838 31.8497C60.8826 31.8497 61.2699 31.655 61.5456 31.2657C61.8254 30.8764 61.9653 30.3067 61.9653 29.5565C61.9653 28.8914 61.8214 28.3643 61.5334 27.975C61.2496 27.5857 60.8623 27.391 60.3716 27.391C59.8891 27.391 59.5058 27.5836 59.222 27.9689C58.9381 28.3501 58.7962 28.9218 58.7962 29.6842Z" fill="white"/>
<path d="M64.4288 29.5686C64.4288 28.5467 64.6681 27.7316 65.1466 27.1234C65.6292 26.511 66.2679 26.2049 67.0627 26.2049C67.8129 26.2049 68.4029 26.4664 68.8328 26.9895L68.8997 26.3265H70.2318V32.7074C70.2318 33.5711 69.9621 34.2524 69.4228 34.7512C68.8875 35.25 68.1637 35.4993 67.2513 35.4993C66.7687 35.4993 66.2963 35.398 65.834 35.1952C65.3757 34.9965 65.027 34.7349 64.7877 34.4105L65.4872 33.5224C65.9414 34.0618 66.501 34.3315 67.1661 34.3315C67.6568 34.3315 68.044 34.1976 68.3279 33.93C68.6118 33.6664 68.7537 33.2771 68.7537 32.7621V32.3181C68.3279 32.7925 67.7602 33.0297 67.0505 33.0297C66.28 33.0297 65.6495 32.7236 65.1588 32.1112C64.6722 31.4989 64.4288 30.6514 64.4288 29.5686ZM65.9009 29.6964C65.9009 30.3574 66.0347 30.8785 66.3023 31.2597C66.574 31.6368 66.9491 31.8254 67.4277 31.8254C68.0238 31.8254 68.4658 31.5699 68.7537 31.0589V28.1635C68.4739 27.6647 68.0359 27.4153 67.4398 27.4153C66.9532 27.4153 66.574 27.608 66.3023 27.9932C66.0347 28.3784 65.9009 28.9462 65.9009 29.6964Z" fill="white"/>
<path d="M73.3279 32.9081H71.8498V23.5649H73.3279V32.9081Z" fill="white"/>
<path d="M77.8414 33.0297C76.9046 33.0297 76.1443 32.7357 75.5603 32.1477C74.9804 31.5557 74.6905 30.769 74.6905 29.7876V29.6051C74.6905 28.9482 74.8162 28.3622 75.0676 27.8472C75.3231 27.3282 75.68 26.9247 76.1382 26.6367C76.5964 26.3488 77.1074 26.2049 77.6711 26.2049C78.5672 26.2049 79.2587 26.4908 79.7453 27.0625C80.236 27.6343 80.4813 28.4433 80.4813 29.4896V30.0857H76.1808C76.2254 30.6291 76.4058 31.0589 76.7221 31.3752C77.0425 31.6915 77.444 31.8497 77.9265 31.8497C78.6037 31.8497 79.1553 31.576 79.581 31.0285L80.3779 31.7889C80.1143 32.1822 79.7615 32.4884 79.3195 32.7074C78.8815 32.9223 78.3888 33.0297 77.8414 33.0297ZM77.665 27.391C77.2595 27.391 76.931 27.5329 76.6796 27.8168C76.4322 28.1007 76.274 28.496 76.2051 29.0029H79.0214V28.8935C78.989 28.3987 78.8572 28.0256 78.6261 27.7742C78.3949 27.5187 78.0745 27.391 77.665 27.391Z" fill="white"/>
<path d="M86.4181 29.6173V32.9081H84.8791V24.0516H88.2673C89.2567 24.0516 90.0414 24.3091 90.6213 24.8241C91.2052 25.3391 91.4972 26.0204 91.4972 26.8679C91.4972 27.7357 91.2113 28.4109 90.6395 28.8935C90.0718 29.376 89.275 29.6173 88.249 29.6173H86.4181ZM86.4181 28.3825H88.2673C88.8147 28.3825 89.2324 28.2548 89.5203 27.9993C89.8082 27.7398 89.9522 27.3667 89.9522 26.8801C89.9522 26.4015 89.8062 26.0204 89.5142 25.7365C89.2222 25.4486 88.8208 25.3006 88.3098 25.2925H86.4181V28.3825Z" fill="white"/>
<path d="M94.277 32.9081H92.7989V23.5649H94.277V32.9081Z" fill="white"/>
<path d="M99.8245 32.9081C99.7596 32.7824 99.7029 32.5776 99.6542 32.2937C99.1838 32.7844 98.608 33.0297 97.9267 33.0297C97.2657 33.0297 96.7264 32.8412 96.3087 32.464C95.891 32.0869 95.6822 31.6206 95.6822 31.065C95.6822 30.3635 95.9417 29.8261 96.4608 29.4531C96.9839 29.0759 97.73 28.8874 98.6992 28.8874H99.6056V28.4555C99.6056 28.1149 99.5103 27.8432 99.3197 27.6404C99.1291 27.4336 98.8391 27.3302 98.4498 27.3302C98.1132 27.3302 97.8375 27.4153 97.6226 27.5857C97.4076 27.7519 97.3002 27.9648 97.3002 28.2243H95.8221C95.8221 27.8634 95.9417 27.5269 96.1809 27.2146C96.4202 26.8983 96.7446 26.6509 97.1542 26.4725C97.5678 26.2941 98.0281 26.2049 98.535 26.2049C99.3055 26.2049 99.9198 26.3995 100.378 26.7888C100.836 27.1741 101.071 27.7175 101.084 28.419V31.3874C101.084 31.9794 101.167 32.4519 101.333 32.8047V32.9081H99.8245ZM98.2004 31.8436C98.4924 31.8436 98.7661 31.7726 99.0216 31.6307C99.2811 31.4888 99.4758 31.2982 99.6056 31.0589V29.818H98.8087C98.2613 29.818 97.8497 29.9133 97.5739 30.1039C97.2982 30.2945 97.1603 30.5642 97.1603 30.9129C97.1603 31.1968 97.2535 31.4239 97.4401 31.5942C97.6307 31.7605 97.8841 31.8436 98.2004 31.8436Z" fill="white"/>
<path d="M104.837 30.7913L106.175 26.3265H107.75L105.135 33.9057C104.733 35.0127 104.052 35.5663 103.091 35.5663C102.876 35.5663 102.639 35.5298 102.379 35.4568V34.3132L102.659 34.3315C103.032 34.3315 103.312 34.2625 103.499 34.1246C103.689 33.9908 103.839 33.7637 103.949 33.4434L104.162 32.8777L101.85 26.3265H103.444L104.837 30.7913Z" fill="white"/>
<path d="M14.5714 32.1287V14.129C14.5714 13.5008 14.936 12.9577 15.464 12.7L25.8758 23.1259L15.4598 33.5552C15.1932 33.4243 14.9686 33.2212 14.8115 32.9691C14.6545 32.7169 14.5713 32.4258 14.5714 32.1287ZM29.1793 26.4327L17.7948 33.0146L26.7734 24.0243L29.1793 26.4327ZM32.718 21.8671C32.9107 22.014 33.0672 22.2031 33.1755 22.4199C33.2838 22.6368 33.341 22.8755 33.3427 23.1178C33.3444 23.3602 33.2905 23.5997 33.1853 23.818C33.08 24.0363 32.9262 24.2276 32.7355 24.3772L30.3163 25.7753L27.671 23.1259L30.3154 20.4773L32.718 21.8671ZM17.8015 13.2422L29.1776 19.8191L26.7734 22.2258L17.8015 13.2422Z" fill="white"/>
<path d="M47.0546 16.5761V16.0173H44.7964V16.7054H46.2144V16.8004C46.203 17.633 45.5871 18.2033 44.6975 18.2033C43.652 18.2033 43.0019 17.3935 43.0019 16.0819C43.0019 14.7931 43.633 14.0252 44.6823 14.0252C45.397 14.0252 45.9331 14.4167 46.1384 15.0973H47.0128C46.8227 14.0024 45.8989 13.28 44.6785 13.28C43.116 13.28 42.1313 14.3597 42.1313 16.0895C42.1313 17.8497 43.1198 18.9484 44.6899 18.9484C46.1764 18.9484 47.0546 18.0626 47.0546 16.5761Z" fill="white"/>
<path d="M49.4611 15.447C50.0352 15.447 50.4229 15.8766 50.4419 16.4887H48.4422C48.484 15.8842 48.887 15.447 49.4611 15.447ZM50.4381 17.6824C50.3279 18.0322 49.9819 18.2679 49.5143 18.2679C48.8566 18.2679 48.4384 17.8079 48.4384 17.1122V17.0628H51.2631V16.7814C51.2631 15.5687 50.5712 14.7855 49.4611 14.7855C48.332 14.7855 47.6096 15.6219 47.6096 16.8765C47.6096 18.1386 48.3206 18.9332 49.4953 18.9332C50.4115 18.9332 51.1034 18.4124 51.2175 17.6824H50.4381Z" fill="white"/>
<path d="M52.1413 13.9111V14.8577H51.5597V15.5078H52.1413V17.8041C52.1413 18.5758 52.4569 18.8838 53.2666 18.8838C53.4491 18.8838 53.6316 18.8686 53.7228 18.8458V18.1957C53.6696 18.2071 53.5366 18.2147 53.4529 18.2147C53.1184 18.2147 52.9663 18.0588 52.9663 17.7129V15.5078H53.7266V14.8577H52.9663V13.9111H52.1413Z" fill="white"/>
<path d="M56.0115 18.8572H56.8327V14.8577H56.0115V18.8572ZM56.4221 14.2723C56.6882 14.2723 56.9011 14.0632 56.9011 13.8047C56.9011 13.5423 56.6882 13.3333 56.4221 13.3333C56.1598 13.3333 55.9469 13.5423 55.9469 13.8047C55.9469 14.0632 56.1598 14.2723 56.4221 14.2723Z" fill="white"/>
<path d="M57.9124 13.9111V14.8577H57.3307V15.5078H57.9124V17.8041C57.9124 18.5758 58.2279 18.8838 59.0377 18.8838C59.2201 18.8838 59.4026 18.8686 59.4939 18.8458V18.1957C59.4406 18.2071 59.3076 18.2147 59.2239 18.2147C58.8894 18.2147 58.7373 18.0588 58.7373 17.7129V15.5078H59.4977V14.8577H58.7373V13.9111H57.9124Z" fill="white"/>
<path d="M63.4743 18.9332C64.6186 18.9332 65.3714 18.1463 65.3714 16.8575C65.3714 15.5725 64.6148 14.7855 63.4743 14.7855C62.3338 14.7855 61.5772 15.5725 61.5772 16.8575C61.5772 18.1463 62.33 18.9332 63.4743 18.9332ZM63.4743 18.2565C62.8318 18.2565 62.4136 17.7471 62.4136 16.8575C62.4136 15.9717 62.8318 15.4622 63.4743 15.4622C64.1168 15.4622 64.535 15.9717 64.535 16.8575C64.535 17.7471 64.1206 18.2565 63.4743 18.2565Z" fill="white"/>
<path d="M66.0062 18.8572H66.8274V16.5267C66.8274 15.907 67.2 15.4964 67.7779 15.4964C68.3481 15.4964 68.6294 15.8272 68.6294 16.4279V18.8572H69.4544V16.2682C69.4544 15.352 68.9488 14.7893 68.0668 14.7893C67.4509 14.7893 67.0251 15.0706 66.8084 15.5269H66.7894V14.8577H66.0062V18.8572Z" fill="white"/>
<path fill-rule="evenodd" clip-rule="evenodd" d="M119.143 0.6H6.85714C3.40142 0.6 0.6 3.40142 0.6 6.85714V41.1429C0.6 44.5986 3.40142 47.4 6.85714 47.4H119.143C122.599 47.4 125.4 44.5986 125.4 41.1429V6.85714C125.4 3.40142 122.599 0.6 119.143 0.6ZM6.85714 0C3.07005 0 0 3.07005 0 6.85714V41.1429C0 44.93 3.07005 48 6.85714 48H119.143C122.93 48 126 44.93 126 41.1429V6.85714C126 3.07005 122.93 0 119.143 0H6.85714Z" fill="white"/>
</svg>
