<svg width="174" height="57" viewBox="0 0 174 57" fill="none" xmlns="http://www.w3.org/2000/svg">
<path d="M68.8831 32.3518H64.9586V48.671H68.8831V32.3518Z" fill="white"/>
<path fill-rule="evenodd" clip-rule="evenodd" d="M71.6146 36.0687H75.4684V37.338C76.231 36.7605 77.8939 35.7446 79.578 35.7446C83.5249 35.7446 83.8019 37.9143 83.8019 40.7782V48.672H79.9705V41.1011C79.9705 39.3698 79.578 39.0705 78.2852 39.0705C77.1314 39.0705 76.0931 39.4382 75.4684 39.7399V48.672H71.6146V36.0687Z" fill="white"/>
<path fill-rule="evenodd" clip-rule="evenodd" d="M85.6622 48.4165L86.0771 45.5078C87.7164 45.7412 89.0317 45.8532 89.8873 45.8532C91.8248 45.8532 92.0558 45.3487 92.0558 44.9775C92.0558 43.6151 85.7082 44.2621 85.7082 39.7389C85.7082 37.0141 88.2703 35.7437 91.0175 35.7437C92.5626 35.7437 93.9497 35.9982 95.265 36.459L94.6179 39.2522C93.3958 38.9752 92.4259 38.7925 91.1318 38.7925C89.8166 38.7925 89.5632 39.2769 89.5632 39.5539C89.5632 40.9858 95.8637 40.5933 95.8637 44.816C95.8637 48.1395 92.3799 48.948 90.2562 48.948C88.4318 48.9492 86.9551 48.7854 85.6622 48.4165Z" fill="white"/>
<path fill-rule="evenodd" clip-rule="evenodd" d="M97.5498 43.8943V36.0688H101.382V43.5714C101.382 45.3015 101.775 45.6032 103.067 45.6032C104.222 45.6032 105.259 45.2791 105.882 44.9786V36.0688H109.737V48.6721H105.882V47.3793C105.121 47.9544 103.458 48.9491 101.774 48.9491C97.8268 48.9491 97.5498 46.7558 97.5498 43.8943Z" fill="white"/>
<path fill-rule="evenodd" clip-rule="evenodd" d="M112.234 36.0693H116.089V37.7534C116.711 36.9461 117.889 35.8147 119.343 35.8147C120.036 35.8147 120.544 35.8607 121.074 36.0233L120.566 39.1841C119.827 39.0451 119.574 39.0451 118.881 39.0451C117.75 39.0451 116.595 39.5766 116.089 40.1293V48.6714H112.234V36.0693Z" fill="white"/>
<path fill-rule="evenodd" clip-rule="evenodd" d="M121.264 45.0695C121.264 41.885 124.174 41.238 126.665 41.238H128.86V40.4531C128.86 39.3465 128.142 39.0212 126.573 39.0212C125.328 39.0212 123.988 39.2993 122.812 39.5751L122.05 36.7832C123.48 36.2292 125.142 35.7649 127.151 35.7649C131.051 35.7649 132.621 36.8751 132.621 39.7142V45.3217C132.621 45.7377 133.035 45.8308 133.752 45.8532L133.613 48.7618C133.312 48.7842 133.012 48.7842 132.712 48.7842C131.19 48.7842 129.573 48.532 129.228 47.4466C128.304 48.1631 126.988 48.8785 125.604 48.8785C122.835 48.8797 121.264 47.5868 121.264 45.0695ZM128.861 45.4631V43.4772L126.966 43.5232C125.836 43.5468 125.005 43.9168 125.005 44.8408C125.005 45.5798 125.72 45.9015 126.413 45.9015C127.152 45.9015 128.029 45.6941 128.861 45.4631Z" fill="white"/>
<path fill-rule="evenodd" clip-rule="evenodd" d="M135.641 36.0687H139.494V37.338C140.257 36.7605 141.92 35.7446 143.604 35.7446C147.551 35.7446 147.828 37.9143 147.828 40.7782V48.672H143.996V41.1011C143.996 39.3698 143.604 39.0705 142.311 39.0705C141.157 39.0705 140.119 39.4382 139.494 39.7399V48.672H135.641V36.0687Z" fill="white"/>
<path fill-rule="evenodd" clip-rule="evenodd" d="M149.645 42.2556C149.645 38.3299 152.275 35.7466 156.548 35.7466C158.394 35.7466 159.572 36.0919 160.563 36.6234L159.572 39.4154C158.555 39.0217 158.002 38.885 156.709 38.885C155.117 38.885 153.592 39.6004 153.592 42.3016C153.592 44.7235 154.169 45.8561 157.195 45.8561C158.258 45.8561 158.833 45.717 159.87 45.5332L160.403 48.463C159.041 48.7635 158.394 48.925 156.986 48.925C151.653 48.925 149.645 46.9639 149.645 42.2556Z" fill="white"/>
<path fill-rule="evenodd" clip-rule="evenodd" d="M161.242 42.5562C161.242 37.4072 163.942 35.7678 167.75 35.7678C171.722 35.7678 173.245 38.3535 173.245 42.1638V43.5485H165.074C165.05 45.5332 166.62 45.9032 168.628 45.9032C169.482 45.9032 170.912 45.6251 172.229 45.3965L172.805 48.3263C171.397 48.7423 169.597 48.9498 168.072 48.9498C163.92 48.9498 161.242 47.5874 161.242 42.5562ZM169.297 41.0783C169.344 39.5556 168.674 38.4926 167.429 38.4926C166.112 38.4926 165.259 39.4154 165.189 41.0783H169.297Z" fill="white"/>
<path fill-rule="evenodd" clip-rule="evenodd" d="M64.9586 8.34912H71.3062C74.9762 8.34912 77.609 10.4952 77.609 14.144C77.609 17.3508 74.9762 20.0532 70.1077 20.0532H68.9055V24.6683H64.9586V8.34912ZM70.2444 17.0279C72.6934 17.0279 73.569 15.7586 73.569 14.2359C73.569 12.5966 72.9008 11.4204 70.8006 11.4204H68.9055V17.0279H70.2444Z" fill="white"/>
<path fill-rule="evenodd" clip-rule="evenodd" d="M93.7444 23.7672L94.8522 20.9517C96.3054 21.4584 97.3684 21.6894 99.168 21.6894C101.13 21.6894 102.031 21.0907 102.031 20.0961C102.031 17.442 94.2747 18.1574 94.2747 12.6182C94.2747 9.4786 97.2541 8.11621 100.139 8.11621C102.724 8.11621 103.969 8.67248 105.239 9.22522L104.107 11.9476C102.908 11.6023 101.914 11.2782 100.253 11.2782C98.6141 11.2782 98.1062 11.9029 98.1062 12.5958C98.1062 14.7643 106.001 14.7643 106.001 19.9593C106.001 23.5374 102.585 24.921 99.214 24.921C96.5375 24.921 94.9677 24.4354 93.7444 23.7672Z" fill="white"/>
<path fill-rule="evenodd" clip-rule="evenodd" d="M108.075 8.34912H111.999V14.9749H118.922V8.34912H122.848V24.6683H118.922V17.9519H111.999V24.6683H108.075V8.34912Z" fill="white"/>
<path fill-rule="evenodd" clip-rule="evenodd" d="M135.151 8.34912H129.796L124.303 24.6683H128.365L129.911 19.8905H135.037L136.583 24.6683H140.645L135.151 8.34912ZM130.833 17.0514L132.472 10.7722L134.112 17.0514H130.833Z" fill="white"/>
<path fill-rule="evenodd" clip-rule="evenodd" d="M87.4393 8.34912H82.0852L76.592 24.6683H80.6533L82.2007 19.8905H87.3262L88.8712 24.6683H92.9336L87.4393 8.34912ZM83.1235 17.0514L84.7617 10.7722L86.401 17.0514H83.1235Z" fill="white"/>
<path fill-rule="evenodd" clip-rule="evenodd" d="M38.6093 8.34644H48.6516L48.6528 24.655L32.3453 24.6527V20.9768L41.3541 11.9716L41.7937 11.5308L38.6093 8.34644Z" fill="white"/>
<path fill-rule="evenodd" clip-rule="evenodd" d="M28.4992 0L40.0312 11.532L28.5003 23.0581L25.9029 20.4618L25.9005 7.10069H21.3997L28.4992 0Z" fill="white"/>
<path fill-rule="evenodd" clip-rule="evenodd" d="M8.34924 8.34644V18.3899L11.0917 15.6475L11.5325 15.2067L20.9773 24.655H24.6579L24.6555 8.34644H8.34924Z" fill="white"/>
<path fill-rule="evenodd" clip-rule="evenodd" d="M0 28.4996L11.532 16.97L23.0616 28.502L20.4618 31.1006H7.10187V35.6015L0 28.4996Z" fill="white"/>
<path fill-rule="evenodd" clip-rule="evenodd" d="M8.34924 48.6521V32.3435L24.6555 32.3447L24.6567 36.0229L15.6503 45.0293L15.2107 45.4689L15.6503 45.9097L18.3916 48.6509L8.34924 48.6521Z" fill="white"/>
<path fill-rule="evenodd" clip-rule="evenodd" d="M28.5018 57.0001L16.9709 45.4681L28.5018 33.9373L31.0981 36.5359V49.8994H35.6036L28.5018 57.0001Z" fill="white"/>
<path fill-rule="evenodd" clip-rule="evenodd" d="M48.6521 48.6529L32.3435 48.6517V32.3466L36.0229 32.3455L45.0293 41.3518L45.4689 41.7926L45.9097 41.3518L48.6509 38.6106L48.6521 48.6529Z" fill="white"/>
<path fill-rule="evenodd" clip-rule="evenodd" d="M45.4692 40.0302L33.9419 28.5017L36.5406 25.9007L49.8981 25.8995V21.3987L57 28.5017L45.4692 40.0302Z" fill="white"/>
</svg>
