<svg width="64" height="60" viewBox="0 0 64 60" fill="none" xmlns="http://www.w3.org/2000/svg">
<path fill-rule="evenodd" clip-rule="evenodd" d="M23.4834 4.34783C22.371 4.34783 21.4168 5.26466 21.4168 6.45485V12.8428H42.5832V6.45485C42.5832 5.26466 41.629 4.34783 40.5166 4.34783H23.4834ZM46.9667 12.8428V6.45485C46.9667 2.91888 44.1055 0 40.5166 0H23.4834C19.8945 0 17.0333 2.91888 17.0333 6.45485V12.8428H10.7084C4.76614 12.8428 0 17.6767 0 23.5786V49.2642C0 55.1661 4.76614 60 10.7084 60H53.2916C59.2339 60 64 55.1661 64 49.2642V23.5786C64 17.6767 59.2339 12.8428 53.2916 12.8428H46.9667ZM10.7084 17.1906C7.24265 17.1906 4.38356 20.0225 4.38356 23.5786V49.2642C4.38356 52.8203 7.24265 55.6522 10.7084 55.6522H53.2916C56.7574 55.6522 59.6164 52.8203 59.6164 49.2642V23.5786C59.6164 20.0225 56.7574 17.1906 53.2916 17.1906H10.7084ZM32 25.6314C33.2105 25.6314 34.1918 26.6047 34.1918 27.8053V34.1933H40.5166C41.7271 34.1933 42.7084 35.1666 42.7084 36.3672C42.7084 37.5678 41.7271 38.5411 40.5166 38.5411H34.1918V44.9291C34.1918 46.1297 33.2105 47.103 32 47.103C30.7895 47.103 29.8082 46.1297 29.8082 44.9291V38.5411H23.4834C22.2729 38.5411 21.2916 37.5678 21.2916 36.3672C21.2916 35.1666 22.2729 34.1933 23.4834 34.1933H29.8082V27.8053C29.8082 26.6047 30.7895 25.6314 32 25.6314Z" fill="white"/>
</svg>
