<svg width="60" height="60" viewBox="0 0 60 60" fill="none" xmlns="http://www.w3.org/2000/svg">
<path d="M12.4288 0.535714C8.4341 0.535714 5.00044 3.15527 4.14202 6.87053C3.4035 9.82617 2.51151 13.5184 1.80176 16.7779C1.09201 20.0374 0.535714 22.6754 0.535714 24.1071V55.9286C0.535714 57.8668 2.19979 59.4643 4.21875 59.4643H11.5848C13.6038 59.4643 15.2679 57.8668 15.2679 55.9286V52.3929H44.7321V55.9286C44.7321 57.8668 46.3962 59.4643 48.4152 59.4643H55.7812C57.8002 59.4643 59.4643 57.8668 59.4643 55.9286V24.1071C59.4643 23.412 59.3012 22.5096 59.0806 21.2712C58.86 20.0328 58.5531 18.5181 58.1982 16.8884C57.4885 13.6289 56.5965 9.88142 55.858 6.87053C54.99 3.12765 51.4604 0.535714 47.5711 0.535714H12.4288ZM12.4288 2.89286H47.5711C50.3094 2.89286 52.8751 4.7666 53.4793 7.38616C53.4793 7.39997 53.4793 7.40918 53.4793 7.42299C54.2131 10.4201 55.1194 14.1445 55.8196 17.3672C56.1697 18.9785 56.4478 20.4471 56.6636 21.6395C56.8794 22.8319 57.0089 23.8033 57.0089 24.1071V25.2857H2.99107V24.1071C2.99107 23.4166 3.48022 20.5162 4.18038 17.2935C4.88055 14.0709 5.78692 10.3602 6.52065 7.42299C6.52065 7.40918 6.52065 7.39997 6.52065 7.38616C7.13449 4.73898 9.54668 2.89286 12.4288 2.89286ZM2.99107 27.6429H57.0089V50.0357H2.99107V27.6429ZM11.5848 34.7143C8.88489 34.7143 6.67411 36.8366 6.67411 39.4286C6.67411 42.0205 8.88489 44.1429 11.5848 44.1429C14.2848 44.1429 16.4955 42.0205 16.4955 39.4286C16.4955 36.8366 14.2848 34.7143 11.5848 34.7143ZM48.4152 34.7143C45.7152 34.7143 43.5045 36.8366 43.5045 39.4286C43.5045 42.0205 45.7152 44.1429 48.4152 44.1429C51.1151 44.1429 53.3259 42.0205 53.3259 39.4286C53.3259 36.8366 51.1151 34.7143 48.4152 34.7143ZM11.5848 37.0714C12.9564 37.0714 14.0402 38.1119 14.0402 39.4286C14.0402 40.7452 12.9564 41.7857 11.5848 41.7857C10.2133 41.7857 9.12946 40.7452 9.12946 39.4286C9.12946 38.1119 10.2133 37.0714 11.5848 37.0714ZM48.4152 37.0714C49.7867 37.0714 50.8705 38.1119 50.8705 39.4286C50.8705 40.7452 49.7867 41.7857 48.4152 41.7857C47.0436 41.7857 45.9598 40.7452 45.9598 39.4286C45.9598 38.1119 47.0436 37.0714 48.4152 37.0714ZM2.99107 52.3929H12.8125V55.9286C12.8125 56.5823 12.2658 57.1071 11.5848 57.1071H4.21875C3.53777 57.1071 2.99107 56.5823 2.99107 55.9286V52.3929ZM47.1875 52.3929H57.0089V55.9286C57.0089 56.5823 56.4622 57.1071 55.7812 57.1071H48.4152C47.7342 57.1071 47.1875 56.5823 47.1875 55.9286V52.3929Z" fill="white"/>
<path fill-rule="evenodd" clip-rule="evenodd" d="M6.52065 7.42299C5.78692 10.3602 4.88055 14.0709 4.18038 17.2935C3.48022 20.5162 2.99107 23.4166 2.99107 24.1071V25.2857H57.0089V24.1071C57.0089 23.8033 56.8794 22.8319 56.6636 21.6395C56.4478 20.4471 56.1697 18.9785 55.8196 17.3672C55.1194 14.1445 54.2131 10.4201 53.4793 7.42299V7.38616C52.8751 4.7666 50.3094 2.89286 47.5711 2.89286H12.4288C9.54668 2.89286 7.13449 4.73898 6.52065 7.38616V7.42299ZM7.05636 7.44899C7.63147 5.09323 9.79869 3.42857 12.4288 3.42857H47.5711C50.065 3.42857 52.3765 5.1261 52.9436 7.44883V7.48761L52.959 7.55038C53.6929 10.5482 54.5977 14.2661 55.2961 17.4809C55.6444 19.084 55.9213 20.546 56.1365 21.7349C56.3543 22.9384 56.4732 23.8604 56.4732 24.1071V24.75H3.52679V24.1071C3.52679 23.8175 3.63876 22.9698 3.85106 21.7411C4.05943 20.5351 4.35525 19.0119 4.70389 17.4073C5.40221 14.193 6.30692 10.489 7.04039 7.55282L7.05636 7.48889V7.44899ZM3.62114 6.74523C4.54146 2.77238 8.20434 0 12.4288 0H47.5711C51.6858 0 55.4485 2.74088 56.3791 6.74616C57.1179 9.75856 58.0108 13.5096 58.7217 16.7744C59.0774 18.408 59.3858 19.9298 59.608 21.1773L59.6281 21.2901C59.8354 22.4529 60 23.3763 60 24.1071V55.9286C60 58.183 58.0752 60 55.7812 60H48.4152C46.1212 60 44.1964 58.183 44.1964 55.9286V52.9286H15.8036V55.9286C15.8036 58.183 13.8788 60 11.5848 60H4.21875C1.92475 60 0 58.183 0 55.9286V24.1071C0 23.3385 0.147472 22.2793 0.3756 21.0316C0.605263 19.7754 0.923698 18.2924 1.27831 16.6639C1.98935 13.3985 2.88224 9.7025 3.62114 6.74523ZM4.14202 6.87053C5.00044 3.15527 8.4341 0.535714 12.4288 0.535714H47.5711C51.4604 0.535714 54.99 3.12765 55.858 6.87053C56.5965 9.88142 57.4885 13.6289 58.1982 16.8884C58.5531 18.5181 58.86 20.0328 59.0806 21.2712L59.0925 21.3381C59.3071 22.5422 59.4643 23.4245 59.4643 24.1071V55.9286C59.4643 57.8668 57.8002 59.4643 55.7812 59.4643H48.4152C46.3962 59.4643 44.7321 57.8668 44.7321 55.9286V52.3929H15.2679V55.9286C15.2679 57.8668 13.6038 59.4643 11.5848 59.4643H4.21875C2.19979 59.4643 0.535714 57.8668 0.535714 55.9286V24.1071C0.535714 22.6754 1.09201 20.0374 1.80176 16.7779C2.51151 13.5184 3.4035 9.82617 4.14202 6.87053ZM56.4732 28.1786H3.52679V49.5H56.4732V28.1786ZM6.13839 39.4286C6.13839 36.5204 8.60984 34.1786 11.5848 34.1786C14.5598 34.1786 17.0312 36.5204 17.0312 39.4286C17.0312 42.3368 14.5598 44.6786 11.5848 44.6786C8.60984 44.6786 6.13839 42.3368 6.13839 39.4286ZM42.9687 39.4286C42.9687 36.5204 45.4402 34.1786 48.4152 34.1786C51.3902 34.1786 53.8616 36.5204 53.8616 39.4286C53.8616 42.3368 51.3902 44.6786 48.4152 44.6786C45.4402 44.6786 42.9687 42.3368 42.9687 39.4286ZM13.5045 39.4286C13.5045 38.4281 12.6813 37.6071 11.5848 37.6071C10.4883 37.6071 9.66518 38.4281 9.66518 39.4286C9.66518 40.429 10.4883 41.25 11.5848 41.25C12.6813 41.25 13.5045 40.429 13.5045 39.4286ZM50.3348 39.4286C50.3348 38.4281 49.5117 37.6071 48.4152 37.6071C47.3187 37.6071 46.4955 38.4281 46.4955 39.4286C46.4955 40.429 47.3187 41.25 48.4152 41.25C49.5117 41.25 50.3348 40.429 50.3348 39.4286ZM12.2768 52.9286H3.52679V55.9286C3.52679 56.266 3.81282 56.5714 4.21875 56.5714H11.5848C11.9908 56.5714 12.2768 56.266 12.2768 55.9286V52.9286ZM56.4732 52.9286H47.7232V55.9286C47.7232 56.266 48.0092 56.5714 48.4152 56.5714H55.7812C56.1872 56.5714 56.4732 56.266 56.4732 55.9286V52.9286ZM2.99107 27.6429V50.0357H57.0089V27.6429H2.99107ZM6.67411 39.4286C6.67411 36.8366 8.88489 34.7143 11.5848 34.7143C14.2848 34.7143 16.4955 36.8366 16.4955 39.4286C16.4955 42.0205 14.2848 44.1429 11.5848 44.1429C8.88489 44.1429 6.67411 42.0205 6.67411 39.4286ZM43.5045 39.4286C43.5045 36.8366 45.7152 34.7143 48.4152 34.7143C51.1151 34.7143 53.3259 36.8366 53.3259 39.4286C53.3259 42.0205 51.1151 44.1429 48.4152 44.1429C45.7152 44.1429 43.5045 42.0205 43.5045 39.4286ZM14.0402 39.4286C14.0402 38.1119 12.9564 37.0714 11.5848 37.0714C10.2133 37.0714 9.12946 38.1119 9.12946 39.4286C9.12946 40.7452 10.2133 41.7857 11.5848 41.7857C12.9564 41.7857 14.0402 40.7452 14.0402 39.4286ZM50.8705 39.4286C50.8705 38.1119 49.7867 37.0714 48.4152 37.0714C47.0436 37.0714 45.9598 38.1119 45.9598 39.4286C45.9598 40.7452 47.0436 41.7857 48.4152 41.7857C49.7867 41.7857 50.8705 40.7452 50.8705 39.4286ZM2.99107 52.3929V55.9286C2.99107 56.5823 3.53777 57.1071 4.21875 57.1071H11.5848C12.2658 57.1071 12.8125 56.5823 12.8125 55.9286V52.3929H2.99107ZM47.1875 52.3929V55.9286C47.1875 56.5823 47.7342 57.1071 48.4152 57.1071H55.7812C56.4622 57.1071 57.0089 56.5823 57.0089 55.9286V52.3929H47.1875Z" fill="white"/>
</svg>
