<svg width="133" height="133" viewBox="0 0 133 133" fill="none" xmlns="http://www.w3.org/2000/svg">
<g clip-path="url(#clip0_1622_1497)">
<path d="M120.482 112.342L81.6797 74L73.9962 81.7758L112.799 120.118L120.482 112.342Z" fill="#A9D8E9"/>
<path d="M44 88C68.3005 88 88 68.3005 88 44C88 19.6995 68.3005 0 44 0C19.6995 0 0 19.6995 0 44C0 68.3005 19.6995 88 44 88Z" fill="#A9D8E9"/>
<path d="M44.5 76C61.897 76 76 61.6731 76 44C76 26.3269 61.897 12 44.5 12C27.103 12 13 26.3269 13 44C13 61.6731 27.103 76 44.5 76Z" fill="#F0F0F0"/>
<rect x="102.141" y="89.8906" width="43.4093" height="16.6248" rx="5" transform="rotate(45 102.141 89.8906)" fill="#69B0C9"/>
<path d="M43.0275 20.078C42.8799 19.8574 42.7958 19.6005 42.7842 19.3353C42.7726 19.07 42.834 18.8065 42.9617 18.5734C43.0895 18.3403 43.2786 18.1466 43.5087 18.0133C43.7387 17.88 44.0008 17.8122 44.2665 17.8173C44.7817 17.8283 45.2907 17.8503 45.8076 17.8939C52.4607 18.4176 58.6341 21.5429 62.9875 26.5913C63.1123 26.7349 63.2075 26.9017 63.2677 27.0821C63.3278 27.2626 63.3518 27.4531 63.3383 27.643C63.3248 27.8328 63.274 28.0182 63.1888 28.1886C63.1036 28.3589 62.9857 28.5109 62.8418 28.6358C62.6979 28.7607 62.5308 28.8561 62.3502 28.9165C62.1695 28.977 61.9787 29.0013 61.7888 28.9881C61.5988 28.9749 61.4134 28.9244 61.2431 28.8396C61.0728 28.7547 60.9209 28.6372 60.7962 28.4936C56.9351 24.0271 51.466 21.2637 45.5735 20.8021C45.1205 20.7627 44.6644 20.7389 44.213 20.7321C43.9768 20.7281 43.7453 20.6664 43.5387 20.5524C43.332 20.4384 43.1565 20.2755 43.0275 20.078Z" fill="white"/>
</g>
<defs>
<clipPath id="clip0_1622_1497">
<rect width="133" height="133" fill="white"/>
</clipPath>
</defs>
</svg>
