<svg width="60" height="57" viewBox="0 0 60 57" fill="none" xmlns="http://www.w3.org/2000/svg">
<path d="M29.9545 0.552408C29.6971 0.561094 29.449 0.648827 29.2455 0.80317L1.03861 22.3382C0.78196 22.534 0.615317 22.8215 0.575338 23.1375C0.535359 23.4535 0.625319 23.7721 0.825429 24.0232C1.02554 24.2743 1.3194 24.4374 1.64238 24.4765C1.96536 24.5156 2.29099 24.4276 2.54764 24.2318L4.24589 22.9358V54.4826C4.24592 54.8008 4.37514 55.106 4.60513 55.331C4.83511 55.556 5.14703 55.6824 5.47228 55.6825H22.4357C22.5681 55.7039 22.7032 55.7039 22.8357 55.6825H37.1523C37.2847 55.7039 37.4198 55.7039 37.5523 55.6825H54.5277C54.8529 55.6824 55.1648 55.556 55.3948 55.331C55.6248 55.106 55.754 54.8008 55.754 54.4826V22.9358L57.4523 24.2318C57.5794 24.3288 57.7247 24.4003 57.8801 24.4423C58.0354 24.4843 58.1976 24.4959 58.3576 24.4766C58.5175 24.4572 58.672 24.4072 58.8121 24.3294C58.9523 24.2516 59.0755 24.1476 59.1746 24.0233C59.2737 23.8989 59.3467 23.7567 59.3897 23.6047C59.4326 23.4528 59.4445 23.294 59.4247 23.1375C59.4049 22.9811 59.3537 22.8299 59.2742 22.6928C59.1947 22.5556 59.0884 22.4351 58.9613 22.3382L49.6221 15.2091C49.622 14.9594 49.6222 14.6704 49.6221 14.2951C49.6219 13.4174 49.6222 12.2576 49.6221 11.1008C49.622 8.78728 49.6221 6.48632 49.6221 6.48632C49.6221 6.16809 49.4929 5.86291 49.2629 5.63789C49.0329 5.41287 48.721 5.28644 48.3957 5.28641H43.4902C43.1649 5.28644 42.853 5.41287 42.623 5.63789C42.3931 5.86291 42.2638 6.16809 42.2638 6.48632C42.2638 6.48632 42.2646 7.87468 42.2638 9.26344C42.2637 9.38272 42.2639 9.47314 42.2638 9.59154L30.7545 0.80317C30.5263 0.630048 30.243 0.541248 29.9545 0.552408ZM30 3.27329L42.7285 12.9897C42.8977 13.1192 43.0987 13.203 43.3114 13.2326C43.5242 13.2622 43.7411 13.2367 43.9405 13.1585L44.6998 12.1999C44.6998 12.1999 44.706 12.1359 44.707 12.1226C44.7088 12.0959 44.709 12.0885 44.7094 12.0804C44.7099 12.0643 44.7115 12.0563 44.7118 12.0476C44.7121 12.0302 44.7116 12.0135 44.7118 11.9914C44.7122 11.9471 44.7115 11.8855 44.7118 11.8086C44.7124 11.6547 44.7137 11.4368 44.7142 11.1758C44.7148 10.6538 44.7162 9.9606 44.7166 9.26579C44.717 8.47607 44.7165 8.77222 44.7166 8.2377H47.1693C47.1694 9.00839 47.1692 9.38879 47.1693 11.1008C47.1694 12.2576 47.1692 13.4172 47.1693 14.2951C47.1694 14.734 47.1692 15.1016 47.1693 15.3638C47.1695 15.6259 47.1705 15.7028 47.1717 15.809C47.1738 15.9892 47.2173 16.1666 47.299 16.3281C47.3806 16.4895 47.4984 16.6309 47.6436 16.7418L53.3013 21.061V53.2827H38.5847V30.4844H21.4153V53.2827H6.69866V21.0633L30 3.27329ZM23.868 32.8843H36.1319V53.2827H23.868V32.8843Z" fill="white"/>
<path fill-rule="evenodd" clip-rule="evenodd" d="M29.9334 0.00131719C30.3553 -0.0146722 30.7691 0.115336 31.1023 0.368063L41.6981 8.45888C41.6981 8.05243 41.6981 7.67115 41.6981 7.3542L41.6978 6.49063C41.6978 6.02692 41.8861 5.57738 42.222 5.24877C42.5579 4.92009 43.014 4.73499 43.4902 4.73494H48.3958C48.8719 4.73499 49.328 4.92009 49.664 5.24877C49.9998 5.57738 50.1881 6.02255 50.1882 6.48626V14.9406L59.3103 21.904C59.4959 22.0456 59.6512 22.2216 59.7671 22.4216C59.8831 22.6217 59.9576 22.842 59.9864 23.07C60.0153 23.2981 59.998 23.5295 59.9354 23.751C59.8729 23.9725 59.7663 24.18 59.6217 24.3615C59.477 24.543 59.2972 24.6949 59.0923 24.8086C58.8873 24.9223 58.6614 24.9955 58.4274 25.0238C58.1934 25.0521 57.9559 25.0351 57.7287 24.9737C57.5015 24.9122 57.289 24.8076 57.1033 24.666L56.3201 24.0683V54.4826C56.32 54.9463 56.1318 55.3915 55.7959 55.7201C55.46 56.0488 55.0038 56.2339 54.5277 56.2339H37.5945C37.4338 56.2554 37.2708 56.2554 37.1101 56.2339H22.8779C22.7172 56.2554 22.5542 56.2554 22.3935 56.2339H5.47222C4.9961 56.2339 4.53997 56.0488 4.20403 55.7201C3.86817 55.3915 3.6799 54.9463 3.67985 54.4826V24.0683L2.89668 24.6659C2.52164 24.9521 2.04527 25.081 1.57256 25.0238C1.09987 24.9665 0.670418 24.728 0.378327 24.3614C0.0863041 23.995 -0.044699 23.5305 0.0135514 23.0701C0.0717962 22.6097 0.314617 22.1902 0.689471 21.9041L28.8963 0.3691C29.1934 0.143829 29.5572 0.0143083 29.9334 0.00131719ZM30.4061 1.23782C30.2833 1.14489 30.1314 1.09747 29.9769 1.10344C29.8391 1.10809 29.7032 1.15509 29.5937 1.23795L1.38775 22.7723C1.2494 22.8778 1.15883 23.0334 1.13712 23.205C1.11542 23.3766 1.16433 23.5493 1.27253 23.685C1.38066 23.8207 1.53894 23.9083 1.71221 23.9292C1.88542 23.9502 2.06035 23.9031 2.19859 23.7977L4.81193 21.8033V54.4826C4.81195 54.6552 4.88211 54.8204 5.00622 54.9419C5.13025 55.0632 5.29796 55.131 5.47233 55.131H22.4823L22.5284 55.1384C22.5994 55.1499 22.6719 55.1499 22.743 55.1384L22.789 55.131H37.1989L37.245 55.1384C37.316 55.1499 37.3885 55.1499 37.4596 55.1384L37.5056 55.131H54.5276C54.702 55.131 54.8697 55.0632 54.9937 54.9419C55.1178 54.8204 55.188 54.6552 55.188 54.4826V21.8033L57.8013 23.7976C57.8698 23.8499 57.948 23.8883 58.0314 23.9109C58.1148 23.9334 58.2019 23.9397 58.2878 23.9293C58.3736 23.9189 58.4566 23.8921 58.532 23.8502C58.6075 23.8083 58.6739 23.7523 58.7275 23.6851C58.781 23.6179 58.8206 23.5409 58.8439 23.4585C58.8672 23.3761 58.8736 23.2899 58.8629 23.205C58.8521 23.1201 58.8244 23.0382 58.7814 22.964C58.7383 22.8897 58.6809 22.8247 58.6124 22.7724L49.0562 15.4776L49.0561 6.48796C49.0561 6.31529 48.9859 6.14845 48.8618 6.02701C48.7378 5.90566 48.57 5.8379 48.3957 5.83788H43.4902C43.3159 5.8379 43.1482 5.90566 43.0241 6.02701C42.9 6.14845 42.8299 6.31364 42.8298 6.48637L42.8301 7.354C42.8302 7.87476 42.8302 8.56918 42.8298 9.26374L42.8291 10.7239L30.4061 1.23782ZM29.9999 2.57268L43.0776 12.5556C43.1688 12.6254 43.2774 12.6708 43.3915 12.6867C43.4618 12.6965 43.5331 12.695 43.6024 12.6826L44.1457 11.9968L44.1458 11.9869C44.146 11.9633 44.1459 11.9428 44.1458 11.9175C44.1457 11.8897 44.1456 11.8562 44.1458 11.8065C44.1459 11.7611 44.1462 11.7106 44.1464 11.6553C44.147 11.5212 44.1478 11.3591 44.1481 11.1748C44.1484 11.0069 44.1486 10.8216 44.1489 10.6243C44.1496 10.2073 44.1503 9.73693 44.1505 9.26549C44.1508 8.77559 44.1507 8.49189 44.1506 8.21929C44.1506 8.05235 44.1505 7.88957 44.1505 7.68614L44.1506 7.13475H47.7354L47.7354 15.3635C47.7355 15.6128 47.7364 15.6918 47.7376 15.7901L47.7377 15.8027C47.7388 15.9004 47.7624 15.9968 47.8067 16.0842C47.8509 16.1716 47.9145 16.248 47.9927 16.3077L53.8673 20.7925V53.8341H38.0186V31.0359H21.9813V53.8341H6.13262V20.7948L29.9999 2.57268ZM44.1437 12.062L44.1439 12.056L44.5306 12.0727L44.1437 12.062ZM44.5857 12.1141L44.5306 12.0727L44.4925 12.0441L44.7118 12.0476M44.1424 12.0832L44.1434 12.0665L44.1437 12.062M44.1424 12.0832C44.1424 12.0832 44.1409 12.1002 44.1394 12.1156L44.1372 12.1383L44.1363 12.1479M30 3.9739L7.2647 21.3318V52.7312H20.8492V29.933H39.1507V52.7312H52.7352V21.3294L47.2945 17.1758C47.0823 17.0139 46.9104 16.8074 46.7912 16.5719C46.6721 16.3363 46.6087 16.0777 46.6057 15.8151L46.6056 15.8044C46.6044 15.7019 46.6034 15.6195 46.6033 15.364V8.2377H45.2827L45.2827 8.21826C45.2826 8.05129 45.2827 8.4401 45.2827 8.2377C45.2828 8.50494 45.2829 8.78775 45.2826 9.26608C45.2824 9.73671 45.2816 10.2068 45.281 10.6233C45.2807 10.8218 45.2804 11.0081 45.2802 11.1765C45.2799 11.362 45.2791 11.5269 45.2785 11.6612C45.2782 11.7163 45.278 11.7663 45.2778 11.8106C45.2777 11.8391 45.2778 11.8741 45.2778 11.9071C45.2779 11.9426 45.278 11.9757 45.2778 11.9958L45.2779 12.0177L45.2777 12.0567L45.2776 12.0627C45.2772 12.079 45.2761 12.0923 45.2754 12.1005L45.2747 12.1077C45.2744 12.1159 45.2738 12.1296 45.2718 12.1595L45.2667 12.217L45.2634 12.2516L45.2479 12.4106L44.2946 13.6141L44.1518 13.67C43.8601 13.7844 43.5427 13.8219 43.2314 13.7785C42.9201 13.7352 42.6261 13.6126 42.3788 13.4234L30 3.9739ZM23.302 32.3328H36.6979V53.8341H23.302V32.3328ZM24.4341 33.4357V52.7312H35.5659V33.4357H24.4341Z" fill="white"/>
</svg>
