<svg width="54" height="54" viewBox="0 0 54 54" fill="none" xmlns="http://www.w3.org/2000/svg">
<path d="M49.6573 0.761603C49.32 0.786299 48.9743 0.856268 48.6369 0.926238C47.2874 1.21435 45.8391 1.83997 44.4237 2.57259C41.6094 4.02962 39.0584 5.87354 37.9722 7.01776H37.9393L30.8294 14.0971L5.54994 10.6727C5.21667 10.6356 4.88751 10.7591 4.66121 11.0019L1.07337 14.6898C0.830613 14.9408 0.723636 15.2989 0.797697 15.6405C0.871758 15.9863 1.1104 16.2703 1.43544 16.402L20.9217 24.0411L10.8823 34.2814H6.04368C5.78858 34.2814 5.54171 34.3761 5.35244 34.5448L1.1392 38.101C0.826498 38.3562 0.686605 38.7636 0.777124 39.1546C0.867643 39.5498 1.17623 39.8543 1.56711 39.9449L11.6065 42.4144L14.0752 52.4572C14.1657 52.8112 14.4373 53.091 14.7829 53.1981C15.1326 53.3051 15.5111 53.2228 15.7868 52.984L19.3746 49.823C19.6051 49.6255 19.7367 49.3374 19.7367 49.0328V43.1388L30.0723 33.096L37.6101 52.5889C37.7418 52.9141 38.0257 53.1528 38.3713 53.2269C38.7128 53.301 39.0707 53.1939 39.3217 52.9511L43.0083 49.362C43.2511 49.1357 43.3745 48.8064 43.3375 48.473L39.9142 23.185L47.0241 16.0727C48.1185 14.9779 49.9742 12.3684 51.4348 9.55315C52.1672 8.14551 52.7926 6.71318 53.0806 5.3714C53.3686 4.02962 53.3727 2.61375 52.4223 1.61771C52.4099 1.60536 52.4017 1.59713 52.3894 1.58478C51.8915 1.10734 51.2908 0.876848 50.6448 0.79453C50.3239 0.753371 49.9947 0.736908 49.6573 0.761603ZM49.7561 2.90187C50.3568 2.86071 50.7065 2.98418 50.8752 3.13236C51.0768 3.35873 51.225 3.92672 51.0069 4.94335C50.7847 5.97644 50.2375 7.29352 49.5586 8.59826C48.2008 11.2119 46.2423 13.8584 45.5428 14.5581L38.0709 22.0655C37.8364 22.2836 37.7171 22.6005 37.7418 22.9216L41.165 48.2425L39.0255 50.3169L31.4548 30.857C31.3314 30.5277 31.0475 30.2808 30.706 30.1985C30.3604 30.1203 29.9983 30.219 29.7432 30.4619L17.9593 41.9534C17.7494 42.151 17.6342 42.4227 17.6301 42.7108V48.5718L15.6881 50.2511L13.4827 41.2949C13.3881 40.9245 13.0959 40.6322 12.7256 40.5376L4.06872 38.3973L6.43867 36.3888H11.3102C11.5983 36.3846 11.8698 36.2694 12.0673 36.0595L23.555 24.3704C23.7977 24.1152 23.8965 23.753 23.8183 23.4072C23.736 23.0656 23.4891 22.7816 23.16 22.6581L3.70665 15.0191L5.78035 12.8459L31.0927 16.2703C31.4137 16.295 31.7305 16.1756 31.9485 15.941L39.4534 8.46655C40.0623 7.82036 42.7532 5.80769 45.3783 4.44944C46.6908 3.77032 48.0239 3.22291 49.0649 3.00065C49.32 2.94714 49.5545 2.91421 49.7561 2.90187Z" fill="white" stroke="white" stroke-width="1.5"/>
</svg>
